<svg width="16" height="20" viewBox="0 0 16 20" fill="white" xmlns="http://www.w3.org/2000/svg">
<path fill-rule="evenodd" clip-rule="evenodd" d="M7.89916 0.806267C9.21346 -0.69332 11.6769 0.247618 11.6769 2.22859V7.72695H13.4087C15.2687 7.72695 16.2639 9.91306 15.0318 11.3132L15.0317 11.3133L8.0964 19.1922C8.09606 19.1926 8.09573 19.193 8.09539 19.1934C6.78115 20.6935 4.31737 19.7525 4.31737 17.7714V12.273H2.58558C0.725287 12.273 -0.249188 10.0848 0.957024 8.69305L0.962567 8.68665L0.962592 8.68667L7.89787 0.807744C7.8983 0.807252 7.89873 0.806759 7.89916 0.806267ZM9.47692 2.3435L2.67316 10.073H5.41737C6.02488 10.073 6.51737 10.5655 6.51737 11.173V17.6565L13.3211 9.92695H10.5769C9.96941 9.92695 9.47692 9.43446 9.47692 8.82695V2.3435Z" fill="white"/>
</svg>
