<svg width="19" height="19" viewBox="0 0 19 19" fill="#378B60" xmlns="http://www.w3.org/2000/svg">
<path fill-rule="evenodd" clip-rule="evenodd" d="M12.4646 3.22796C12.2521 3.39245 12.095 3.57501 12.0235 3.68058L12.0217 3.68322C11.6571 4.21808 10.9879 4.44694 10.3742 4.25441C10.2947 4.22945 10.1334 4.18228 9.96003 4.14245C9.76776 4.09828 9.63788 4.0815 9.58934 4.0815C9.03705 4.0815 8.58934 3.63378 8.58934 3.0815C8.58934 2.52921 9.03705 2.0815 9.58934 2.0815C9.8766 2.0815 10.191 2.1434 10.4079 2.19325C10.4784 2.20944 10.5467 2.22633 10.6111 2.24305C10.8663 1.94657 11.2289 1.61235 11.6795 1.34969C12.3185 0.977253 13.2047 0.713404 14.2037 1.015C14.2855 1.03969 14.4861 1.10952 14.6664 1.29412C14.769 1.39914 14.8966 1.5752 14.9442 1.82561C14.994 2.08811 14.9354 2.3247 14.8429 2.50136C14.8307 2.52455 14.8177 2.54725 14.8038 2.56941C14.4325 3.16055 14.3668 3.6849 14.4875 4.12866C15.4684 4.96064 16.217 5.99246 16.6595 7.14059C17.4468 7.31747 18.035 8.02078 18.035 8.86145V10.1932C18.035 11.0136 17.4661 11.7012 16.7014 11.883C16.2906 13.014 15.5795 14.0344 14.6505 14.8668C14.6397 14.8773 14.6287 14.8876 14.6175 14.8976C14.588 14.9238 14.56 14.947 14.544 14.9604L14.5415 14.9625C14.5308 14.9714 14.5245 14.9767 14.5204 14.9802C14.5086 14.9909 14.4923 15.0053 14.4721 15.0216C13.8217 15.6343 13.7543 16.3248 13.748 16.4987V17.1745C13.748 17.7267 13.3003 18.1745 12.748 18.1745H9.98081C9.42852 18.1745 8.98081 17.7267 8.98081 17.1745V17.1084C8.83831 17.1152 8.69438 17.119 8.54925 17.119C8.31816 17.119 8.08654 17.1106 7.85671 17.0946V17.1783C7.85671 17.7306 7.409 18.1783 6.85671 18.1783H4.08955C3.53727 18.1783 3.08955 17.7306 3.08955 17.1783V16.9805C3.06734 16.5656 2.92833 15.6087 2.19867 14.8593L2.19681 14.8574C1.63282 14.275 1.15462 13.5389 0.759765 12.6896C0.515243 12.2162 0.331925 11.7209 0.204102 11.217C0.197395 11.1948 0.190599 11.1695 0.184459 11.1414C0.181494 11.1279 0.178653 11.1135 0.176038 11.0985C0.0585766 10.5969 0 10.084 0 9.57147C0 9.19709 0.031543 8.82153 0.0952072 8.45319C0.189269 7.90897 0.706695 7.54405 1.25091 7.63811C1.79513 7.73217 2.16005 8.2496 2.06599 8.79381C2.02219 9.04722 2 9.30876 2 9.57147C2 9.94542 2.04438 10.3189 2.13281 10.682C2.13573 10.694 2.13843 10.7061 2.1409 10.7182C2.23174 11.0783 2.35984 11.4253 2.52642 11.7517C2.54863 11.7912 2.56461 11.8259 2.57471 11.8494C2.89796 12.5439 3.25889 13.079 3.6326 13.4651C4.51698 14.3739 4.86574 15.4297 5.0034 16.1783H5.89264C5.96048 15.8792 6.12154 15.608 6.3515 15.4046C6.65903 15.1325 7.08145 14.9912 7.51328 15.0513C7.85447 15.0955 8.20471 15.119 8.54925 15.119C8.81319 15.119 9.08397 15.1026 9.36473 15.0747C9.78959 15.028 10.1917 15.1715 10.4899 15.4353C10.716 15.6353 10.8687 15.8938 10.9381 16.1745H11.7684C11.8353 15.5786 12.1069 14.4653 13.1664 13.5051C13.187 13.4865 13.2082 13.4688 13.23 13.4521C13.2427 13.4413 13.2536 13.4323 13.2611 13.4261C13.2669 13.4212 13.2714 13.4174 13.275 13.4144C13.2832 13.4067 13.2914 13.3991 13.2998 13.3916C14.0808 12.6967 14.6284 11.856 14.9002 10.9646L14.9025 10.957C15.0667 10.4336 15.5044 10.0501 16.035 9.95373V9.07976C15.496 8.99439 15.0468 8.61184 14.8761 8.09155M13.1424 13.5313C13.1357 13.538 13.1418 13.5313 13.1564 13.5176C13.1517 13.5221 13.147 13.5267 13.1424 13.5313ZM2.59234 11.8924C2.59234 11.8924 2.59115 11.8896 2.58775 11.8811C2.59047 11.8877 2.59234 11.8924 2.59234 11.8924ZM2.05996 10.4897L2.05791 10.4856L2.05841 10.4866M0.266265 11.3744L0.268304 11.3785L0.267816 11.3775M12.4646 3.22796C12.4043 3.67772 12.4261 4.13468 12.5405 4.58823C12.5839 4.9611 12.7702 5.31327 13.0792 5.55896C13.9518 6.26403 14.5649 7.14564 14.8761 8.09155" fill="#378B60"/>
<path fill-rule="evenodd" clip-rule="evenodd" d="M0.627485 3.52092C0.627485 1.57838 2.20586 7.62939e-06 4.1484 7.62939e-06C6.09095 7.62939e-06 7.66932 1.57838 7.66932 3.52092C7.66932 5.46346 6.09095 7.04184 4.1484 7.04184C2.20586 7.04184 0.627485 5.46347 0.627485 3.52092ZM4.1484 2.00001C3.31043 2.00001 2.62749 2.68295 2.62749 3.52092C2.62749 4.3589 3.31043 5.04184 4.1484 5.04184C4.98637 5.04184 5.66932 4.3589 5.66932 3.52092C5.66932 2.68295 4.98637 2.00001 4.1484 2.00001Z" fill="#378B60"/>
</svg>
